<svg id="visual" viewBox="0 0 960 540" width="960" height="540" xmlns="http://www.w3.org/2000/svg" xmlns:xlink="http://www.w3.org/1999/xlink" version="1.1"><rect x="0" y="0" width="960" height="540" fill="#eee"></rect><defs><linearGradient id="grad1_0" x1="43.8%" y1="0%" x2="100%" y2="100%"><stop offset="14.444444444444446%" stop-color="#185adb" stop-opacity="1"></stop><stop offset="85.55555555555554%" stop-color="#185adb" stop-opacity="1"></stop></linearGradient></defs><defs><linearGradient id="grad1_1" x1="43.8%" y1="0%" x2="100%" y2="100%"><stop offset="14.444444444444446%" stop-color="#185adb" stop-opacity="1"></stop><stop offset="85.55555555555554%" stop-color="#7f88e3" stop-opacity="1"></stop></linearGradient></defs><defs><linearGradient id="grad1_2" x1="43.8%" y1="0%" x2="100%" y2="100%"><stop offset="14.444444444444446%" stop-color="#bab9e9" stop-opacity="1"></stop><stop offset="85.55555555555554%" stop-color="#7f88e3" stop-opacity="1"></stop></linearGradient></defs><defs><linearGradient id="grad1_3" x1="43.8%" y1="0%" x2="100%" y2="100%"><stop offset="14.444444444444446%" stop-color="#bab9e9" stop-opacity="1"></stop><stop offset="85.55555555555554%" stop-color="#eeeeee" stop-opacity="1"></stop></linearGradient></defs><defs><linearGradient id="grad2_0" x1="0%" y1="0%" x2="56.3%" y2="100%"><stop offset="14.444444444444446%" stop-color="#185adb" stop-opacity="1"></stop><stop offset="85.55555555555554%" stop-color="#185adb" stop-opacity="1"></stop></linearGradient></defs><defs><linearGradient id="grad2_1" x1="0%" y1="0%" x2="56.3%" y2="100%"><stop offset="14.444444444444446%" stop-color="#7f88e3" stop-opacity="1"></stop><stop offset="85.55555555555554%" stop-color="#185adb" stop-opacity="1"></stop></linearGradient></defs><defs><linearGradient id="grad2_2" x1="0%" y1="0%" x2="56.3%" y2="100%"><stop offset="14.444444444444446%" stop-color="#7f88e3" stop-opacity="1"></stop><stop offset="85.55555555555554%" stop-color="#bab9e9" stop-opacity="1"></stop></linearGradient></defs><defs><linearGradient id="grad2_3" x1="0%" y1="0%" x2="56.3%" y2="100%"><stop offset="14.444444444444446%" stop-color="#eeeeee" stop-opacity="1"></stop><stop offset="85.55555555555554%" stop-color="#bab9e9" stop-opacity="1"></stop></linearGradient></defs><g transform="translate(960, 0)"><path d="M0 378C-35.6 363.7 -71.3 349.4 -110.6 340.5C-150 331.5 -193.1 327.8 -222.2 305.8C-251.3 283.8 -266.5 243.4 -288.8 209.8C-311.1 176.3 -340.6 149.7 -356.6 115.9C-372.7 82.1 -375.3 41 -378 0L0 0Z" fill="#d4d3ec"></path><path d="M0 283.5C-26.7 272.8 -53.5 262.1 -83 255.4C-112.5 248.6 -144.8 245.9 -166.6 229.4C-188.5 212.8 -199.9 182.5 -216.6 157.4C-233.4 132.2 -255.4 112.3 -267.5 86.9C-279.5 61.5 -281.5 30.8 -283.5 0L0 0Z" fill="#9ea0e6"></path><path d="M0 189C-17.8 181.9 -35.6 174.7 -55.3 170.2C-75 165.8 -96.5 163.9 -111.1 152.9C-125.7 141.9 -133.2 121.7 -144.4 104.9C-155.6 88.2 -170.3 74.9 -178.3 57.9C-186.3 41 -187.7 20.5 -189 0L0 0Z" fill="#5a70df"></path><path d="M0 94.5C-8.9 90.9 -17.8 87.4 -27.7 85.1C-37.5 82.9 -48.3 82 -55.5 76.5C-62.8 70.9 -66.6 60.8 -72.2 52.5C-77.8 44.1 -85.1 37.4 -89.2 29C-93.2 20.5 -93.8 10.3 -94.5 0L0 0Z" fill="#185adb"></path></g><g transform="translate(0, 540)"><path d="M0 -378C37.9 -369.7 75.8 -361.3 113.7 -350C151.6 -338.6 189.4 -324.3 218.1 -300.1C246.7 -276 266.1 -242.1 290.4 -211C314.8 -179.9 344.1 -151.5 359.5 -116.8C374.9 -82.1 376.5 -41 378 0L0 0Z" fill="#d4d3ec"></path><path d="M0 -283.5C28.4 -277.3 56.9 -271 85.3 -262.5C113.7 -254 142.1 -243.2 163.6 -225.1C185 -207 199.6 -181.6 217.8 -158.3C236.1 -134.9 258.1 -113.6 269.6 -87.6C281.2 -61.6 282.3 -30.8 283.5 0L0 0Z" fill="#9ea0e6"></path><path d="M0 -189C19 -184.8 37.9 -180.7 56.9 -175C75.8 -169.3 94.7 -162.1 109 -150.1C123.3 -138 133 -121.1 145.2 -105.5C157.4 -89.9 172 -75.8 179.7 -58.4C187.5 -41 188.2 -20.5 189 0L0 0Z" fill="#5a70df"></path><path d="M0 -94.5C9.5 -92.4 19 -90.3 28.4 -87.5C37.9 -84.7 47.4 -81.1 54.5 -75C61.7 -69 66.5 -60.5 72.6 -52.8C78.7 -45 86 -37.9 89.9 -29.2C93.7 -20.5 94.1 -10.3 94.5 0L0 0Z" fill="#185adb"></path></g></svg>