<svg id="visual" viewBox="0 0 900 800" width="900" height="800" xmlns="http://www.w3.org/2000/svg" xmlns:xlink="http://www.w3.org/1999/xlink" version="1.1"><rect x="0" y="0" width="900" height="800" fill="#eee"></rect><path d="M0 475L18.8 479C37.7 483 75.3 491 112.8 501C150.3 511 187.7 523 225.2 517.5C262.7 512 300.3 489 337.8 485.8C375.3 482.7 412.7 499.3 450.2 515.5C487.7 531.7 525.3 547.3 562.8 545.2C600.3 543 637.7 523 675.2 519.7C712.7 516.3 750.3 529.7 787.8 535C825.3 540.3 862.7 537.7 881.3 536.3L900 535L900 801L881.3 801C862.7 801 825.3 801 787.8 801C750.3 801 712.7 801 675.2 801C637.7 801 600.3 801 562.8 801C525.3 801 487.7 801 450.2 801C412.7 801 375.3 801 337.8 801C300.3 801 262.7 801 225.2 801C187.7 801 150.3 801 112.8 801C75.3 801 37.7 801 18.8 801L0 801Z" fill="#185adb"></path><path d="M0 614L18.8 618.5C37.7 623 75.3 632 112.8 626.5C150.3 621 187.7 601 225.2 582.5C262.7 564 300.3 547 337.8 558.7C375.3 570.3 412.7 610.7 450.2 621.2C487.7 631.7 525.3 612.3 562.8 592.8C600.3 573.3 637.7 553.7 675.2 542.3C712.7 531 750.3 528 787.8 538.7C825.3 549.3 862.7 573.7 881.3 585.8L900 598L900 801L881.3 801C862.7 801 825.3 801 787.8 801C750.3 801 712.7 801 675.2 801C637.7 801 600.3 801 562.8 801C525.3 801 487.7 801 450.2 801C412.7 801 375.3 801 337.8 801C300.3 801 262.7 801 225.2 801C187.7 801 150.3 801 112.8 801C75.3 801 37.7 801 18.8 801L0 801Z" fill="#294fd8"></path><path d="M0 599L18.8 605.7C37.7 612.3 75.3 625.7 112.8 625.8C150.3 626 187.7 613 225.2 615.8C262.7 618.7 300.3 637.3 337.8 635.5C375.3 633.7 412.7 611.3 450.2 605.3C487.7 599.3 525.3 609.7 562.8 618.7C600.3 627.7 637.7 635.3 675.2 628.8C712.7 622.3 750.3 601.7 787.8 603C825.3 604.3 862.7 627.7 881.3 639.3L900 651L900 801L881.3 801C862.7 801 825.3 801 787.8 801C750.3 801 712.7 801 675.2 801C637.7 801 600.3 801 562.8 801C525.3 801 487.7 801 450.2 801C412.7 801 375.3 801 337.8 801C300.3 801 262.7 801 225.2 801C187.7 801 150.3 801 112.8 801C75.3 801 37.7 801 18.8 801L0 801Z" fill="#3743d3"></path><path d="M0 717L18.8 717.7C37.7 718.3 75.3 719.7 112.8 708.5C150.3 697.3 187.7 673.7 225.2 664C262.7 654.3 300.3 658.7 337.8 657C375.3 655.3 412.7 647.7 450.2 644.3C487.7 641 525.3 642 562.8 653.8C600.3 665.7 637.7 688.3 675.2 690.2C712.7 692 750.3 673 787.8 667.3C825.3 661.7 862.7 669.3 881.3 673.2L900 677L900 801L881.3 801C862.7 801 825.3 801 787.8 801C750.3 801 712.7 801 675.2 801C637.7 801 600.3 801 562.8 801C525.3 801 487.7 801 450.2 801C412.7 801 375.3 801 337.8 801C300.3 801 262.7 801 225.2 801C187.7 801 150.3 801 112.8 801C75.3 801 37.7 801 18.8 801L0 801Z" fill="#4435ce"></path><path d="M0 760L18.8 754.8C37.7 749.7 75.3 739.3 112.8 736.8C150.3 734.3 187.7 739.7 225.2 741.8C262.7 744 300.3 743 337.8 734.5C375.3 726 412.7 710 450.2 711C487.7 712 525.3 730 562.8 738.2C600.3 746.3 637.7 744.7 675.2 737C712.7 729.3 750.3 715.7 787.8 715.8C825.3 716 862.7 730 881.3 737L900 744L900 801L881.3 801C862.7 801 825.3 801 787.8 801C750.3 801 712.7 801 675.2 801C637.7 801 600.3 801 562.8 801C525.3 801 487.7 801 450.2 801C412.7 801 375.3 801 337.8 801C300.3 801 262.7 801 225.2 801C187.7 801 150.3 801 112.8 801C75.3 801 37.7 801 18.8 801L0 801Z" fill="#5024c7"></path></svg>