<svg id="visual" viewBox="0 0 960 540" width="960" height="540" xmlns="http://www.w3.org/2000/svg" xmlns:xlink="http://www.w3.org/1999/xlink" version="1.1"><path d="M0 120L137 60L274 109L411 66L549 104L686 71L823 87L960 66L960 0L823 0L686 0L549 0L411 0L274 0L137 0L0 0Z" fill="#5b97ff"></path><path d="M0 282L137 293L274 293L411 341L549 260L686 303L823 309L960 330L960 64L823 85L686 69L549 102L411 64L274 107L137 58L0 118Z" fill="#4683f4"></path><path d="M0 368L137 374L274 406L411 411L549 357L686 390L823 384L960 417L960 328L823 307L686 301L549 258L411 339L274 291L137 291L0 280Z" fill="#306fe8"></path><path d="M0 541L137 541L274 541L411 541L549 541L686 541L823 541L960 541L960 415L823 382L686 388L549 355L411 409L274 404L137 372L0 366Z" fill="#185adb"></path></svg>